inDegrees=no
num_controls=7
num_derivatives=13
num_iterations=203
num_multipliers=7
num_parameters=0
num_slacks=7
num_states=26
objective=5.227029
objective_accelerations=0.624731
objective_balance=0.038801
objective_effort=0.591462
objective_height=3.922985
objective_ligament=0.049050
solver_duration=1989.942326
status=Solve_Succeeded
success=true
DataType=double
version=3
OpenSimVersion=4.4-2022-07-23-0e9fedc
endheader
time	/jointset/ground_pelvis/pelvis_tilt/value	/jointset/ground_pelvis/pelvis_tx/value	/jointset/ground_pelvis/pelvis_ty/value	/jointset/hip_l/hip_flexion_l/value	/jointset/hip_l/hip_adduction_l/value	/jointset/hip_l/hip_rotation_l/value	/jointset/back/lumbar_extension/value	/jointset/patellofemoral_l/patellar_flexion_l/value	/jointset/knee_l/knee_flexion_l/value	/jointset/knee_l/knee_adduction_l/value	/jointset/knee_l/knee_rotation_l/value	/jointset/ankle_l/ankle_angle_l/value	/jointset/subtalar_l/subtalar_angle_l/value	/jointset/ground_pelvis/pelvis_tilt/speed	/jointset/ground_pelvis/pelvis_tx/speed	/jointset/ground_pelvis/pelvis_ty/speed	/jointset/hip_l/hip_flexion_l/speed	/jointset/hip_l/hip_adduction_l/speed	/jointset/hip_l/hip_rotation_l/speed	/jointset/back/lumbar_extension/speed	/jointset/patellofemoral_l/patellar_flexion_l/speed	/jointset/knee_l/knee_flexion_l/speed	/jointset/knee_l/knee_adduction_l/speed	/jointset/knee_l/knee_rotation_l/speed	/jointset/ankle_l/ankle_angle_l/speed	/jointset/subtalar_l/subtalar_angle_l/speed	/forceset/tau_hip_flexion_l	/forceset/tau_hip_adduction_l	/forceset/tau_hip_rotation_l	/forceset/tau_knee_flexion_l	/forceset/tau_ankle_angle_l	/forceset/tau_subtalar_angle_l	/forceset/tau_lumbar_extension	lambda_cid13_p0	lambda_cid13_p1	lambda_cid13_p2	lambda_cid13_p3	lambda_cid13_p4	lambda_cid13_p5	lambda_cid14_p0	/jointset/ground_pelvis/pelvis_tilt/accel	/jointset/ground_pelvis/pelvis_tx/accel	/jointset/ground_pelvis/pelvis_ty/accel	/jointset/hip_l/hip_flexion_l/accel	/jointset/hip_l/hip_adduction_l/accel	/jointset/hip_l/hip_rotation_l/accel	/jointset/back/lumbar_extension/accel	/jointset/patellofemoral_l/patellar_flexion_l/accel	/jointset/knee_l/knee_flexion_l/accel	/jointset/knee_l/knee_adduction_l/accel	/jointset/knee_l/knee_rotation_l/accel	/jointset/ankle_l/ankle_angle_l/accel	/jointset/subtalar_l/subtalar_angle_l/accel	gamma_cid13_p0	gamma_cid13_p1	gamma_cid13_p2	gamma_cid13_p3	gamma_cid13_p4	gamma_cid13_p5	gamma_cid14_p0
1	-0.1472325873435745	-0.07017885048215323	0.5794837250424408	1.650196295529433	-0.3114296890375963	0.05652258543728716	-0.9599291751977298	1.681925060084256	1.68192506008425	0.07551983672727351	-0.1745306548851326	0.3018209862770871	0.09836051955458396	0.08201996055090675	0.01783016302642761	0.07763467560416962	-0.2971427859087058	-0.009337456412793951	-0.0571291390326041	0.0001652175281713379	-0.160887918370294	-0.1608879183702932	-0.009148805816236331	2.022586942741452e-06	0.04652339907322917	0.01094208899198431	-0.416325794287348	0.001065143082208378	-0.02108870534709678	-0.4335297652508477	0.05177693712708208	0.02612299315099058	0.455432721469971	-37.22177144264954	0.1400534002216316	-6.15129443508467	18.13081788712022	-836.0843629829185	-64.22819072922893	-0.03855178969619979	0.5359534056295017	-0.1680602160596009	2.180907564749389	-6.36755240365641	-0.0969286190870878	-1.384572573310796	-0.02531643714330544	-6.202407468380426	-6.202407468380442	-1.034393117625537	-0.02443493812086828	-0.7950939119794342	-0.4977559279038476	9.881938645556022e-09	-3.79020005193678e-08	-1.315323016481295e-07	-3.111063840025943e-08	-2.30345151245987e-08	-5.840094797059945e-08	6.554583072463715e-09
1.01	-0.1463856901444703	-0.0700088405963941	0.58036889802874	1.646907187220382	-0.3115271763696376	0.05588404686613813	-0.959928364317732	1.68000658123684	1.680006581236834	0.07537553813253754	-0.1745306060268013	0.3022464061278021	0.09844598842459516	0.08737518390003018	0.01618432277658989	0.09938368788883026	-0.3606413757361167	-0.01015039272470034	-0.07057158503250172	9.29431288217443e-06	-0.2227850014018434	-0.2227850014018408	-0.01970148829988649	7.088791269177317e-06	0.03853205692778616	0.006149896744047711	-0.4155209875663203	0.001211940027367644	-0.02105689147743101	-0.4335299104390591	0.05181209875746891	0.02634215234436171	0.455049882434221	-37.15566021044772	0.01372353318529661	-6.108796735274013	17.87946938053791	-835.5909187491902	-64.40529660651276	-0.0385844450083662	0.5376619768634023	-0.1609775055592151	2.169456971287408	-6.33538761647608	-0.07200380289602279	-1.323033303065565	-0.008879901351103368	-6.179932951060048	-6.179932951059785	-1.064294163993974	0.01284073798151822	-0.8054348614009674	-0.4701878851236114	1.042595587615792e-08	-6.934903935884238e-08	-1.692137063449403e-07	-3.928605656594279e-08	-3.004911641752217e-08	-1.068472000860019e-07	8.417147009948421e-09
1.02	-0.1454847696764115	-0.0698549154283561	0.5814710729200786	1.642984217944209	-0.3116324985979292	0.05511129329703307	-0.9599287425968004	1.677469816713004	1.677469816713001	0.07512599504304093	-0.1745305338387738	0.3025910564579481	0.0984834879697504	0.09282461434154374	0.01461321948220615	0.1210350566120272	-0.4239149793312324	-0.01090443566275018	-0.0839721386218607	-7.26144075904723e-05	-0.2845450536541063	-0.2845450536541019	-0.03019770479390409	6.688526480413587e-06	0.03036949495937373	0.001348224020709222	-0.41471618084533	0.001358736972516523	-0.02102507760744675	-0.4335300556272544	0.05184726038786197	0.02656131153771714	0.4546670433984349	-37.09579798035283	-0.1129623333831548	-6.064585247972883	17.672672218795	-835.1722422420215	-64.57665274759125	-0.03862770985278948	0.554794824107579	-0.1531128249688288	2.161378852456638	-6.322555157197391	-0.08514994431576541	-1.376194091203064	-0.01051353818165751	-6.175001312523102	-6.175001312523101	-1.023099919699019	-0.02552823194388683	-0.8293378765733627	-0.4996520229842236	1.148662063435903e-08	-9.962675583023955e-08	-2.026311102408846e-07	-4.832472241724773e-08	-3.665206867692033e-08	-1.527587934371847e-07	1.008124321458383e-08
1.03	-0.1445286790400435	-0.0697162937621354	0.5827892018642093	1.638429691342135	-0.3117450498324719	0.05420474309068928	-0.9599296830436441	1.674316257040211	1.674316257040206	0.07477184390302805	-0.1745304985280169	0.3028530978812892	0.09847289337782487	0.09842958537094293	0.01312688972351222	0.1425676585148104	-0.4869489947430619	-0.01159290950680406	-0.09732581323229243	-0.0001148004910488136	-0.3461325727267389	-0.3461325727267378	-0.04061999059213139	1.834312442215869e-06	0.02199850405585385	-0.003469440818465461	-0.4137798964703498	0.001513765285134299	-0.02095022997143684	-0.4332019871854285	0.0518122002217184	0.02689388055810373	0.4541627524888685	-37.02664988065813	-0.3086042713851711	-5.988733406890596	17.41679323141014	-834.407211285322	-64.83577212759204	-0.03867940705331976	0.5687588050487024	-0.14403818641002	2.145731114117474	-6.287622852472534	-0.05872081126467504	-1.313144043230022	-0.0009699793823146674	-6.145483336705448	-6.145483336705895	-1.049917922452827	0.01220053371977685	-0.8470286538660536	-0.473119519611328	1.255255730610707e-08	-1.29892540440738e-07	-2.360050039245751e-07	-5.737219691840594e-08	-4.32508204359764e-08	-1.986445229234265e-07	1.174331423827179e-08
1.04	-0.1435154565808449	-0.06959206442051967	0.5843219628783537	1.633246064962078	-0.3118640907468179	0.05316501815876813	-0.9599310251177567	1.670547850950278	1.670547850950271	0.07431384490260322	-0.1745304788494306	0.3030302196042706	0.09841406297646263	0.1042509789080558	0.01173475456121207	0.1639614706147303	-0.5497349349267597	-0.01220237162343164	-0.1106070837334043	-0.0001529400126570465	-0.4075143370822578	-0.4075143370822594	-0.05096727689308721	3.562092545698282e-06	0.01338555488734192	-0.008298937866731375	-0.412843612095385	0.001668793597728015	-0.02087538233520697	-0.4328739187435936	0.05177714005557177	0.02722644957845247	0.4536584615792857	-36.96423037246044	-0.5045317380078042	-5.911163589946473	17.20672789721968	-833.7229999506516	-65.09050287475576	-0.03874108944604943	0.5980793256503431	-0.1342739056900907	2.133620891883969	-6.272940111571054	-0.06934759883050814	-1.3617132693391	-0.009704225809901205	-6.133850369100355	-6.133850369100272	-1.008100020244716	-0.02421183311555548	-0.8777295295718127	-0.5020184648024859	8.916638017839202e-09	-1.581194531402491e-07	-2.647657678011177e-07	-5.653366043230683e-08	-5.056241967848488e-08	-2.281240602833642e-07	1.193450565553678e-08
1.05	-0.1424433684179198	-0.0694810652962721	0.586067982958951	1.627435981658913	-0.3119888365493914	0.05199276004927601	-0.9599309915287038	1.666166551336286	1.666166551336289	0.07375281110808989	-0.1745303786341475	0.3031201758156119	0.09830696702681149	0.1101609181344135	0.01050303590057432	0.1852214177703388	-0.6122273156059199	-0.01273654464045037	-0.1238338163138659	0.000332706548391858	-0.4687226718675846	-0.4687226718675868	-0.06123088589826501	1.605370469811933e-05	0.004582986915514648	-0.0131167113604105	-0.4132754995385968	0.001895194992327281	-0.02075281267734575	-0.4323202686243315	0.05176938387674899	0.02758027889453652	0.4547979760999902	-36.93478135569249	-0.7103370369868	-5.824689397559841	16.57664971380619	-834.0375944524934	-65.31603968933931	-0.03880331626349035	0.5865910873496245	-0.1119370700984762	2.119000813884532	-6.229225419013884	-0.04386527691678738	-1.301552771681414	0.1036564106735475	-6.110890373373312	-6.110890373373444	-1.034212243813869	0.01384700237817612	-0.8849358093251694	-0.4710605950967386	5.13378573082086e-09	-1.862826510925418e-07	-2.933823713711869e-07	-5.538618610285597e-08	-5.789629540485124e-08	-2.57090904139355e-07	1.207973208510105e-08
